# xmcd CD database file
#
# Track frame offsets:
#	150
#	10165
#	20000
#	48340
#	59600
#	68752
#	76407
#	78635
#	87345
#	108265
#	116862
#	125532
#	134692
#
# Disc length: 1867 seconds
#
# Revision: 0
# Processed by: cddbd v1.5PL3 Copyright (c) Steve Scherf et al.
# Submitted via: CDex 1.50beta9
#
DISCID=b407490d
DTITLE=PACIFIC 231 - bright future
DYEAR=2002
DGENRE=Soundtrack
TTITLE0=FATEFUL EVENTS
TTITLE1=YUJI'S DREAM
TTITLE2=DRAB LIFE
TTITLE3=A SMALL ATELIER
TTITLE4=A NEW WORK
TTITLE5=THE METROPOLITAN GAME CENTER
TTITLE6=THE RIVER OF JELLYFISHES
TTITLE7=TOWARD THE OCEAN
TTITLE8=HELLYFISH THEME
TTITLE9=LIGHTS OF JELLYFISHES
TTITLE10=THE HOUSE OF DETENTION
TTITLE11=OMOTESANDO MARCH
TTITLE12=THE CHASE
EXTD=YEAR: 2002
EXTT0=
EXTT1=
EXTT2=
EXTT3=
EXTT4=
EXTT5=
EXTT6=
EXTT7=
EXTT8=
EXTT9=
EXTT10=
EXTT11=
EXTT12=
PLAYORDER=
